<svg width="118" height="69" viewBox="0 0 118 69" fill="none" xmlns="http://www.w3.org/2000/svg">
<path opacity="0.1" d="M30.5504 53.5162C38.6223 53.5162 41.8328 47.5539 41.8328 35.446V32.7859C41.8328 20.7697 38.3471 14.7157 30.3669 14.7157C22.4784 14.7157 18.9011 20.678 18.9011 32.7859V35.5377C18.9011 47.7374 22.4784 53.5162 30.5504 53.5162ZM30 68.1007C11.6547 68.1007 0.0970857 56.268 0.0970857 35.6294V32.8776C0.0970857 12.1474 13.0306 0.498091 30.3669 0.498091C47.6116 0.498091 60.6368 11.2301 60.6368 32.5107V35.0791C60.6368 55.9011 48.7123 68.1007 30 68.1007ZM64.7114 67V64.3399L87.6431 40.0323C94.1557 33.0611 98.4669 27.4658 98.4669 21.9622C98.4669 17.5593 96.1737 14.624 91.4956 14.624C86.8176 14.624 83.8823 17.4675 83.0568 25.2643H65.9956C66.6377 8.84523 76.5442 0.498091 92.4129 0.498091C108.465 0.498091 116.996 9.12041 116.996 21.2283C116.996 30.2176 111.951 37.0053 104.613 44.0683L95.4399 52.9658H117.454V67H64.7114Z" fill="url(#paint0_linear_147_370)"/>
<defs>
<linearGradient id="paint0_linear_147_370" x1="58.7949" y1="-13" x2="58.7949" y2="88" gradientUnits="userSpaceOnUse">
<stop stop-color="#6F69F2"/>
<stop offset="1" stop-color="#403D8C" stop-opacity="0"/>
</linearGradient>
</defs>
</svg>
