<svg width="123" height="69" viewBox="0 0 123 69" fill="none" xmlns="http://www.w3.org/2000/svg">
<path opacity="0.1" d="M30.5504 53.4537C38.6223 53.4537 41.8328 47.4914 41.8328 35.3835V32.7234C41.8328 20.7072 38.3471 14.6532 30.3669 14.6532C22.4784 14.6532 18.9011 20.6155 18.9011 32.7234V35.4752C18.9011 47.6749 22.4784 53.4537 30.5504 53.4537ZM30 68.0382C11.6547 68.0382 0.0970857 56.2055 0.0970857 35.5669V32.8151C0.0970857 12.0849 13.0306 0.435591 30.3669 0.435591C47.6116 0.435591 60.6368 11.1676 60.6368 32.4482V35.0166C60.6368 55.8386 48.7123 68.0382 30 68.0382ZM96.206 66.9375V54.3709H64.285V47.308L91.6196 1.35286H114.276V41.4375H122.715V54.3709H114.276V66.9375H96.206ZM81.9883 41.4375H96.6646V15.4788L81.9883 41.4375Z" fill="url(#paint0_linear_147_412)"/>
<defs>
<linearGradient id="paint0_linear_147_412" x1="61.2949" y1="-13.0625" x2="61.2949" y2="87.9375" gradientUnits="userSpaceOnUse">
<stop stop-color="#6F69F2"/>
<stop offset="1" stop-color="#403D8C" stop-opacity="0"/>
</linearGradient>
</defs>
</svg>
